G04 DipTrace 2.4.0.1*
%INBottom.gbr*%
%MOIN*%
%ADD17C,0.025*%
%ADD24C,0.1266*%
%ADD25C,0.0396*%
%ADD27C,0.152*%
%FSLAX44Y44*%
G04*
G70*
G90*
G75*
G01*
%LNBottom*%
%LPD*%
D25*
X18070Y9759D3*
X21657Y7460D3*
X15326Y7086D3*
D27*
X5857Y5169D3*
Y15212D3*
X28357D3*
Y5169D3*
X4212Y15925D2*
D17*
X31156D1*
X4212Y15676D2*
X23922D1*
X25284D2*
X31156D1*
X4212Y15427D2*
X23754D1*
X25449D2*
X31156D1*
X4212Y15179D2*
X23723D1*
X25480D2*
X31156D1*
X4212Y14930D2*
X23817D1*
X25386D2*
X31156D1*
X4212Y14681D2*
X31156D1*
X4212Y14433D2*
X31156D1*
X4212Y14184D2*
X12430D1*
X13851D2*
X31156D1*
X4212Y13935D2*
X10539D1*
X11820D2*
X12426D1*
X13851D2*
X31156D1*
X4212Y13687D2*
X10524D1*
X13851D2*
X23934D1*
X25269D2*
X31156D1*
X4212Y13438D2*
X10524D1*
X13847D2*
X23758D1*
X25445D2*
X31156D1*
X4212Y13189D2*
X10524D1*
X13847D2*
X23723D1*
X25480D2*
X31156D1*
X4212Y12940D2*
X5695D1*
X6742D2*
X10524D1*
X13843D2*
X23809D1*
X25394D2*
X28633D1*
X29722D2*
X31156D1*
X4212Y12692D2*
X5445D1*
X6992D2*
X10524D1*
X13843D2*
X24207D1*
X24995D2*
X28395D1*
X29956D2*
X31156D1*
X4212Y12443D2*
X5332D1*
X7105D2*
X10524D1*
X13843D2*
X28285D1*
X30070D2*
X31156D1*
X4212Y12194D2*
X5297D1*
X7140D2*
X10524D1*
X13839D2*
X28254D1*
X30101D2*
X31156D1*
X4212Y11946D2*
X5328D1*
X7105D2*
X10524D1*
X13839D2*
X28293D1*
X30062D2*
X31156D1*
X4212Y11697D2*
X5445D1*
X6992D2*
X10524D1*
X15156D2*
X28414D1*
X29941D2*
X31156D1*
X4212Y11448D2*
X5692D1*
X6745D2*
X10707D1*
X15163D2*
X28672D1*
X29679D2*
X31156D1*
X4212Y11200D2*
X11992D1*
X15136D2*
X31156D1*
X4212Y10951D2*
X31156D1*
X4212Y10702D2*
X7836D1*
X8601D2*
X26727D1*
X27628D2*
X31156D1*
X4212Y10454D2*
X7481D1*
X8952D2*
X26434D1*
X27921D2*
X31156D1*
X4212Y10205D2*
X7418D1*
X9019D2*
X26375D1*
X27976D2*
X31152D1*
X4212Y9956D2*
X7473D1*
X8964D2*
X26438D1*
X27917D2*
X31152D1*
X4212Y9708D2*
X7746D1*
X8691D2*
X26746D1*
X27605D2*
X31152D1*
X4212Y9459D2*
X7484D1*
X8949D2*
X31152D1*
X4212Y9210D2*
X7418D1*
X9019D2*
X31152D1*
X4212Y8961D2*
X5727D1*
X6710D2*
X7469D1*
X8968D2*
X28664D1*
X29691D2*
X31152D1*
X4212Y8713D2*
X5461D1*
X6976D2*
X7734D1*
X8702D2*
X28410D1*
X29945D2*
X31152D1*
X4212Y8464D2*
X5336D1*
X7101D2*
X28289D1*
X30062D2*
X31152D1*
X4212Y8215D2*
X5297D1*
X7140D2*
X28254D1*
X30101D2*
X31152D1*
X4212Y7967D2*
X5324D1*
X7113D2*
X28285D1*
X30066D2*
X31152D1*
X4212Y7718D2*
X5430D1*
X7003D2*
X28399D1*
X29952D2*
X31152D1*
X4212Y7469D2*
X5664D1*
X6773D2*
X28641D1*
X29710D2*
X31152D1*
X4212Y7221D2*
X31152D1*
X4212Y6972D2*
X31152D1*
X4212Y6723D2*
X31152D1*
X4212Y6475D2*
X31152D1*
X4212Y6226D2*
X31152D1*
X4212Y5977D2*
X31152D1*
X4212Y5729D2*
X31152D1*
X4212Y5480D2*
X31152D1*
X4212Y5231D2*
X31152D1*
X4212Y4982D2*
X31152D1*
X4212Y4734D2*
X31152D1*
X4212Y4485D2*
X31152D1*
X4212Y4236D2*
X31152D1*
X7107Y8069D2*
X7081Y7947D1*
X7039Y7830D1*
X6980Y7719D1*
X6907Y7618D1*
X6821Y7528D1*
X6722Y7451D1*
X6614Y7388D1*
X6499Y7341D1*
X6378Y7310D1*
X6254Y7296D1*
X6129Y7300D1*
X6006Y7321D1*
X5887Y7359D1*
X5774Y7413D1*
X5670Y7482D1*
X5577Y7565D1*
X5496Y7660D1*
X5429Y7766D1*
X5377Y7879D1*
X5341Y7999D1*
X5323Y8123D1*
X5322Y8248D1*
X5338Y8371D1*
X5371Y8492D1*
X5420Y8606D1*
X5485Y8713D1*
X5565Y8810D1*
X5656Y8894D1*
X5759Y8966D1*
X5871Y9022D1*
X5989Y9062D1*
X6112Y9085D1*
X6236Y9092D1*
X6361Y9080D1*
X6482Y9052D1*
X6599Y9007D1*
X6708Y8946D1*
X6808Y8871D1*
X6896Y8783D1*
X6971Y8683D1*
X7032Y8574D1*
X7077Y8457D1*
X7105Y8335D1*
X7116Y8194D1*
X7107Y8069D1*
Y12069D2*
X7081Y11947D1*
X7039Y11830D1*
X6980Y11719D1*
X6907Y11618D1*
X6821Y11528D1*
X6722Y11451D1*
X6614Y11388D1*
X6499Y11341D1*
X6378Y11310D1*
X6254Y11296D1*
X6129Y11300D1*
X6006Y11321D1*
X5887Y11359D1*
X5774Y11413D1*
X5670Y11482D1*
X5577Y11565D1*
X5496Y11660D1*
X5429Y11766D1*
X5377Y11879D1*
X5341Y11999D1*
X5323Y12123D1*
X5322Y12248D1*
X5338Y12371D1*
X5371Y12492D1*
X5420Y12606D1*
X5485Y12713D1*
X5565Y12810D1*
X5656Y12894D1*
X5759Y12966D1*
X5871Y13022D1*
X5989Y13062D1*
X6112Y13085D1*
X6236Y13092D1*
X6361Y13080D1*
X6482Y13052D1*
X6599Y13007D1*
X6708Y12946D1*
X6808Y12871D1*
X6896Y12783D1*
X6971Y12683D1*
X7032Y12574D1*
X7077Y12457D1*
X7105Y12335D1*
X7116Y12194D1*
X7107Y12069D1*
X7856Y8686D2*
X7768Y8708D1*
X7663Y8767D1*
X7634Y8786D1*
X7535Y8894D1*
X7514Y8923D1*
X7458Y9058D1*
X7448Y9092D1*
X7442Y9238D1*
X7444Y9273D1*
X7488Y9413D1*
X7503Y9445D1*
X7592Y9561D1*
X7616Y9586D1*
X7740Y9665D1*
X7796Y9689D1*
X7793Y9699D1*
X7663Y9767D1*
X7634Y9786D1*
X7535Y9894D1*
X7514Y9923D1*
X7458Y10058D1*
X7448Y10092D1*
X7442Y10238D1*
X7444Y10273D1*
X7488Y10413D1*
X7503Y10445D1*
X7592Y10561D1*
X7616Y10586D1*
X7740Y10665D1*
X7771Y10680D1*
X7916Y10712D1*
X8335Y10716D1*
X8521Y10712D1*
X8668Y10679D1*
X8773Y10621D1*
X8802Y10601D1*
X8901Y10493D1*
X8922Y10465D1*
X8978Y10329D1*
X8988Y10296D1*
X8994Y10149D1*
X8992Y10114D1*
X8948Y9975D1*
X8933Y9943D1*
X8844Y9827D1*
X8820Y9801D1*
X8696Y9723D1*
X8640Y9698D1*
X8643Y9688D1*
X8773Y9621D1*
X8802Y9601D1*
X8901Y9493D1*
X8922Y9465D1*
X8978Y9329D1*
X8988Y9296D1*
X8994Y9149D1*
X8992Y9114D1*
X8948Y8975D1*
X8933Y8943D1*
X8844Y8827D1*
X8820Y8801D1*
X8696Y8723D1*
X8665Y8707D1*
X8520Y8675D1*
X8101Y8671D1*
X7915Y8675D1*
X7856Y8686D1*
X30066Y12083D2*
X30040Y11961D1*
X29997Y11844D1*
X29939Y11733D1*
X29866Y11632D1*
X29779Y11542D1*
X29681Y11465D1*
X29573Y11402D1*
X29457Y11355D1*
X29336Y11324D1*
X29212Y11311D1*
X29087Y11314D1*
X28964Y11335D1*
X28845Y11373D1*
X28732Y11427D1*
X28628Y11496D1*
X28535Y11579D1*
X28454Y11674D1*
X28387Y11780D1*
X28335Y11894D1*
X28300Y12013D1*
X28281Y12137D1*
X28280Y12262D1*
X28296Y12386D1*
X28329Y12506D1*
X28379Y12621D1*
X28444Y12727D1*
X28523Y12824D1*
X28615Y12909D1*
X28717Y12980D1*
X28829Y13036D1*
X28947Y13076D1*
X29070Y13100D1*
X29195Y13106D1*
X29319Y13094D1*
X29441Y13066D1*
X29557Y13021D1*
X29666Y12960D1*
X29766Y12885D1*
X29854Y12797D1*
X29929Y12697D1*
X29990Y12588D1*
X30035Y12471D1*
X30063Y12350D1*
X30074Y12208D1*
X30066Y12083D1*
Y8083D2*
X30040Y7961D1*
X29997Y7844D1*
X29939Y7733D1*
X29866Y7632D1*
X29779Y7542D1*
X29681Y7465D1*
X29573Y7402D1*
X29457Y7355D1*
X29336Y7324D1*
X29212Y7311D1*
X29087Y7314D1*
X28964Y7335D1*
X28845Y7373D1*
X28732Y7427D1*
X28628Y7496D1*
X28535Y7579D1*
X28454Y7674D1*
X28387Y7780D1*
X28335Y7894D1*
X28300Y8013D1*
X28281Y8137D1*
X28280Y8262D1*
X28296Y8386D1*
X28329Y8506D1*
X28379Y8621D1*
X28444Y8727D1*
X28523Y8824D1*
X28615Y8909D1*
X28717Y8980D1*
X28829Y9036D1*
X28947Y9076D1*
X29070Y9100D1*
X29195Y9106D1*
X29319Y9094D1*
X29441Y9066D1*
X29557Y9021D1*
X29666Y8960D1*
X29766Y8885D1*
X29854Y8797D1*
X29929Y8697D1*
X29990Y8588D1*
X30035Y8471D1*
X30063Y8350D1*
X30074Y8208D1*
X30066Y8083D1*
X27538Y10716D2*
X27626Y10693D1*
X27731Y10635D1*
X27761Y10615D1*
X27860Y10507D1*
X27880Y10479D1*
X27936Y10344D1*
X27946Y10310D1*
X27952Y10164D1*
X27950Y10129D1*
X27906Y9989D1*
X27892Y9957D1*
X27803Y9841D1*
X27778Y9815D1*
X27655Y9737D1*
X27623Y9721D1*
X27478Y9689D1*
X27059Y9685D1*
X26873Y9689D1*
X26727Y9723D1*
X26621Y9781D1*
X26592Y9800D1*
X26493Y9908D1*
X26472Y9937D1*
X26417Y10072D1*
X26407Y10106D1*
X26400Y10252D1*
X26403Y10287D1*
X26447Y10427D1*
X26461Y10459D1*
X26550Y10575D1*
X26574Y10600D1*
X26698Y10679D1*
X26730Y10695D1*
X26874Y10726D1*
X27294Y10730D1*
X27479Y10726D1*
X27538Y10716D1*
X25012Y15791D2*
X25126Y15757D1*
X25276Y15660D1*
X25358Y15564D1*
X25405Y15484D1*
X25455Y15318D1*
X25456Y15194D1*
X25440Y15103D1*
X25372Y14944D1*
X25293Y14847D1*
X25222Y14788D1*
X25068Y14710D1*
X24899Y14683D1*
X24259Y14687D1*
X24091Y14726D1*
X23982Y14788D1*
X23912Y14847D1*
X23808Y14985D1*
X23764Y15102D1*
X23748Y15193D1*
X23757Y15366D1*
X23799Y15483D1*
X23845Y15563D1*
X23963Y15689D1*
X24071Y15753D1*
X24157Y15784D1*
X24305Y15806D1*
X24944Y15802D1*
X25012Y15791D1*
Y13791D2*
X25126Y13757D1*
X25276Y13660D1*
X25358Y13564D1*
X25405Y13484D1*
X25455Y13318D1*
X25456Y13194D1*
X25440Y13103D1*
X25372Y12944D1*
X25293Y12847D1*
X25222Y12788D1*
X25068Y12710D1*
X24899Y12683D1*
X24259Y12687D1*
X24091Y12726D1*
X23982Y12788D1*
X23912Y12847D1*
X23808Y12985D1*
X23764Y13102D1*
X23748Y13193D1*
X23757Y13366D1*
X23799Y13483D1*
X23845Y13563D1*
X23963Y13689D1*
X24071Y13753D1*
X24157Y13784D1*
X24305Y13806D1*
X24944Y13802D1*
X25012Y13791D1*
X12838Y14407D2*
X13560Y14414D1*
X13680Y14386D1*
X13775Y14306D1*
X13823Y14188D1*
X13827Y14147D1*
X13813Y11901D1*
X14873Y11898D1*
X14994Y11869D1*
X15088Y11789D1*
X15135Y11670D1*
X15138Y11318D1*
X15109Y11198D1*
X15029Y11104D1*
X14910Y11057D1*
X14497Y11054D1*
X12250Y11061D1*
X12130Y11090D1*
X12036Y11171D1*
X11990Y11290D1*
X11984Y11434D1*
X10814Y11435D1*
X10694Y11464D1*
X10600Y11545D1*
X10553Y11663D1*
X10549Y12200D1*
Y13846D1*
X10578Y13966D1*
X10659Y14060D1*
X10777Y14107D1*
X11089Y14112D1*
X11539Y14118D1*
X11660Y14091D1*
X11755Y14012D1*
X11803Y13894D1*
X11808Y13833D1*
X12449Y13843D1*
X12451Y14141D1*
X12480Y14261D1*
X12560Y14355D1*
X12679Y14402D1*
X12838Y14407D1*
X31056Y16170D2*
X4187Y16173D1*
Y4183D1*
X31177D1*
X31181Y16170D1*
X31056D1*
D24*
X6218Y8194D3*
Y12194D3*
G36*
X7961Y8936D2*
X7873Y8952D1*
X7795Y8996D1*
X7738Y9065D1*
X7707Y9149D1*
Y9238D1*
X7737Y9322D1*
X7795Y9391D1*
X7872Y9436D1*
X7960Y9451D1*
X8475D1*
X8563Y9436D1*
X8641Y9391D1*
X8698Y9323D1*
X8729Y9239D1*
Y9149D1*
X8699Y9065D1*
X8641Y8997D1*
X8564Y8952D1*
X8476Y8936D1*
X7961D1*
G37*
G36*
Y9936D2*
X7873Y9952D1*
X7795Y9996D1*
X7738Y10065D1*
X7707Y10149D1*
Y10238D1*
X7737Y10322D1*
X7795Y10391D1*
X7872Y10436D1*
X7960Y10451D1*
X8475D1*
X8563Y10436D1*
X8641Y10391D1*
X8698Y10323D1*
X8729Y10239D1*
Y10149D1*
X8699Y10065D1*
X8641Y9997D1*
X8564Y9952D1*
X8476Y9936D1*
X7961D1*
G37*
D24*
X29176Y12208D3*
Y8208D3*
G36*
X27434Y11465D2*
X27522Y11450D1*
X27599Y11405D1*
X27657Y11337D1*
X27687Y11253D1*
Y11163D1*
X27657Y11079D1*
X27600Y11011D1*
X27522Y10966D1*
X27434Y10950D1*
X26919D1*
X26831Y10966D1*
X26754Y11010D1*
X26696Y11079D1*
X26665Y11163D1*
Y11252D1*
X26696Y11336D1*
X26753Y11405D1*
X26831Y11450D1*
X26919Y11465D1*
X27434D1*
G37*
G36*
Y10465D2*
X27522Y10450D1*
X27599Y10405D1*
X27657Y10337D1*
X27687Y10253D1*
Y10163D1*
X27657Y10079D1*
X27600Y10011D1*
X27522Y9966D1*
X27434Y9950D1*
X26919D1*
X26831Y9966D1*
X26754Y10010D1*
X26696Y10079D1*
X26665Y10163D1*
Y10252D1*
X26696Y10336D1*
X26753Y10405D1*
X26831Y10450D1*
X26919Y10465D1*
X27434D1*
G37*
G36*
X24898Y15541D2*
X25000Y15524D1*
X25089Y15472D1*
X25156Y15393D1*
X25191Y15296D1*
Y15193D1*
X25156Y15096D1*
X25090Y15017D1*
X25000Y14966D1*
X24899Y14948D1*
X24305D1*
X24204Y14966D1*
X24114Y15017D1*
X24048Y15096D1*
X24013Y15193D1*
Y15296D1*
X24048Y15393D1*
X24114Y15472D1*
X24203Y15523D1*
X24305Y15541D1*
X24898D1*
G37*
G36*
Y14541D2*
X25000Y14524D1*
X25089Y14472D1*
X25156Y14393D1*
X25191Y14296D1*
Y14193D1*
X25156Y14096D1*
X25090Y14017D1*
X25000Y13966D1*
X24899Y13948D1*
X24305D1*
X24204Y13966D1*
X24114Y14017D1*
X24048Y14096D1*
X24013Y14193D1*
Y14296D1*
X24048Y14393D1*
X24114Y14472D1*
X24203Y14523D1*
X24305Y14541D1*
X24898D1*
G37*
G36*
Y13541D2*
X25000Y13524D1*
X25089Y13472D1*
X25156Y13393D1*
X25191Y13296D1*
Y13193D1*
X25156Y13096D1*
X25090Y13017D1*
X25000Y12966D1*
X24899Y12948D1*
X24305D1*
X24204Y12966D1*
X24114Y13017D1*
X24048Y13096D1*
X24013Y13193D1*
Y13296D1*
X24048Y13393D1*
X24114Y13472D1*
X24203Y13523D1*
X24305Y13541D1*
X24898D1*
G37*
M02*
