G04 DipTrace 2.4.0.1*
%INTop.gbr*%
%MOIN*%
%ADD14C,0.01*%
%ADD15C,0.016*%
%ADD16C,0.013*%
%ADD22C,0.1969*%
%ADD24C,0.1266*%
%ADD25C,0.0396*%
%ADD27C,0.152*%
%FSLAX44Y44*%
G04*
G70*
G90*
G75*
G01*
%LNTop*%
%LPD*%
X14510Y11942D2*
D14*
X14347Y11962D1*
X11774Y11162D2*
X11757Y11122D1*
D15*
Y10632D1*
X12640D1*
Y10788D1*
X21657Y7460D2*
Y8023D1*
X21641D1*
X14239Y15267D2*
X15680D1*
D14*
X14440D1*
X14239D1*
X12640Y10632D2*
Y10788D1*
X14510Y10942D2*
D15*
X14277Y10912D1*
D14*
X14510Y10942D1*
X12640Y10788D2*
X12667Y10912D1*
D15*
X14277D1*
X12640Y10788D2*
D14*
Y10789D1*
X12667Y10842D1*
X18058Y9802D2*
X18070D1*
D15*
Y9759D1*
X14440Y15267D2*
D16*
Y12012D1*
X14510Y11942D1*
Y10942D2*
X14520Y10952D1*
X15464D1*
Y11942D1*
X14510D1*
X12011Y14011D2*
X13267Y15267D1*
X14239D1*
X11774Y11162D2*
X11531Y11405D1*
X10539D1*
Y14098D1*
X12011D1*
Y14011D1*
X12640Y10788D2*
X12805D1*
X15499Y8094D1*
Y7109D1*
X15326Y7086D2*
D15*
Y7109D1*
X15499D1*
X18019D2*
Y8924D1*
X16633D1*
Y10442D1*
D14*
X16570D1*
X18019Y7109D2*
D16*
X19082D1*
X19558Y6633D1*
X14510Y11442D2*
D14*
X14277Y11472D1*
X12640Y11536D2*
D15*
X12667Y11472D1*
D14*
X12640Y11536D1*
X14277Y11472D2*
D15*
X12667D1*
X12640Y11536D2*
D16*
X13169Y12065D1*
Y13401D1*
X13031Y13263D1*
X12011D1*
X11145Y13637D2*
X11072Y13564D1*
Y12129D1*
X12047D1*
X12640Y11536D1*
X18881Y15163D2*
D15*
X18538Y15182D1*
D14*
X18881Y15163D1*
D16*
X18777Y15267D1*
X15342D1*
X15373Y15235D1*
Y13401D1*
X22050Y13093D2*
X22923Y12220D1*
X27271D1*
X28228Y11263D1*
Y9416D1*
X25445Y6633D1*
X20678D1*
X16570Y10942D2*
D14*
X16551Y10982D1*
X19923Y10782D2*
X20027D1*
D15*
Y14021D1*
X19938D1*
Y15252D1*
X19885D1*
Y15163D1*
Y15252D2*
D14*
Y15163D1*
X19383Y14021D2*
D15*
X19938D1*
X19923Y10782D2*
Y10942D1*
D14*
Y10782D1*
X16570Y10942D2*
D15*
X19923D1*
X18058Y12322D2*
Y12312D1*
D14*
Y12322D1*
X16570Y11442D2*
D16*
X17178D1*
X18058Y12322D1*
X19086D1*
X19468Y12704D1*
X23299Y10782D2*
D15*
X24082D1*
X27176Y10208D1*
X20587Y12704D2*
X21584D1*
Y15112D1*
X21867D1*
Y15173D1*
Y15112D2*
D14*
Y15173D1*
X9952Y12129D2*
D16*
X8218Y10395D1*
Y10194D1*
X22773Y15173D2*
X24530D1*
X24602Y15245D1*
X22955Y13093D2*
X24450D1*
X24602Y13245D1*
X21043Y10782D2*
X21604D1*
X22179D1*
X21604D2*
Y9162D1*
X21641Y9125D1*
D25*
X18070Y9759D3*
X21657Y7460D3*
X15326Y7086D3*
D27*
X5857Y5169D3*
Y15212D3*
X28357D3*
G36*
X15027Y14913D2*
X15657D1*
Y15621D1*
X15027D1*
Y14913D1*
G37*
G36*
X13924D2*
X14554D1*
Y15621D1*
X13924D1*
Y14913D1*
G37*
G36*
X21995Y8810D2*
Y9440D1*
X21287D1*
Y8810D1*
X21995D1*
G37*
G36*
Y7708D2*
Y8338D1*
X21287D1*
Y7708D1*
X21995D1*
G37*
G36*
X17586Y12834D2*
Y11810D1*
X18531D1*
Y12834D1*
X17586D1*
G37*
G36*
Y10314D2*
Y9291D1*
X18531D1*
Y10314D1*
X17586D1*
G37*
G36*
X14987Y6637D2*
X16011D1*
Y7582D1*
X14987D1*
Y6637D1*
G37*
G36*
X17507D2*
X18531D1*
Y7582D1*
X17507D1*
Y6637D1*
G37*
G36*
X21991Y15336D2*
X21743D1*
Y15009D1*
X21991D1*
Y15336D1*
G37*
G36*
X22897D2*
X22649D1*
Y15009D1*
X22897D1*
Y15336D1*
G37*
G36*
X22831Y12930D2*
X23079D1*
Y13257D1*
X22831D1*
Y12930D1*
G37*
G36*
X21926D2*
X22174D1*
Y13257D1*
X21926D1*
Y12930D1*
G37*
D22*
X28354Y15212D3*
X5857D3*
Y5169D3*
X28357Y15220D3*
Y5169D3*
G36*
X11735Y13460D2*
Y13066D1*
X12287D1*
Y13460D1*
X11735D1*
G37*
G36*
Y14208D2*
Y13814D1*
X12287D1*
Y14208D1*
X11735D1*
G37*
G36*
X10869Y13834D2*
Y13440D1*
X11420D1*
Y13834D1*
X10869D1*
G37*
G36*
X12365Y10985D2*
Y10591D1*
X12916D1*
Y10985D1*
X12365D1*
G37*
G36*
Y11733D2*
Y11339D1*
X12916D1*
Y11733D1*
X12365D1*
G37*
G36*
X11498Y11359D2*
Y10965D1*
X12050D1*
Y11359D1*
X11498D1*
G37*
G36*
X13523Y14031D2*
X12814D1*
Y12771D1*
X13523D1*
Y14031D1*
G37*
G36*
X15728D2*
X15019D1*
Y12771D1*
X15728D1*
Y14031D1*
G37*
G36*
X10267Y12484D2*
X9637D1*
Y11774D1*
X10267D1*
Y12484D1*
G37*
G36*
X11387D2*
X10757D1*
Y11774D1*
X11387D1*
Y12484D1*
G37*
G36*
X20238Y11137D2*
X19608D1*
Y10427D1*
X20238D1*
Y11137D1*
G37*
G36*
X21358D2*
X20728D1*
Y10427D1*
X21358D1*
Y11137D1*
G37*
G36*
X22494D2*
X21864D1*
Y10427D1*
X22494D1*
Y11137D1*
G37*
G36*
X23614D2*
X22984D1*
Y10427D1*
X23614D1*
Y11137D1*
G37*
G36*
X19783Y13059D2*
X19153D1*
Y12349D1*
X19783D1*
Y13059D1*
G37*
G36*
X20902D2*
X20272D1*
Y12349D1*
X20902D1*
Y13059D1*
G37*
G36*
X19873Y6988D2*
X19243D1*
Y6278D1*
X19873D1*
Y6988D1*
G37*
G36*
X20993D2*
X20363D1*
Y6278D1*
X20993D1*
Y6988D1*
G37*
G36*
X19629Y14848D2*
X20141D1*
Y15478D1*
X19629D1*
Y14848D1*
G37*
G36*
X18989Y13706D2*
X19777D1*
Y14336D1*
X18989D1*
Y13706D1*
G37*
G36*
X18625Y14848D2*
X19137D1*
Y15478D1*
X18625D1*
Y14848D1*
G37*
D24*
X6218Y8194D3*
Y12194D3*
G36*
X7961Y8936D2*
X7873Y8952D1*
X7795Y8996D1*
X7738Y9065D1*
X7707Y9149D1*
Y9238D1*
X7737Y9322D1*
X7795Y9391D1*
X7872Y9436D1*
X7960Y9451D1*
X8475D1*
X8563Y9436D1*
X8641Y9391D1*
X8698Y9323D1*
X8729Y9239D1*
Y9149D1*
X8699Y9065D1*
X8641Y8997D1*
X8564Y8952D1*
X8476Y8936D1*
X7961D1*
G37*
G36*
Y9936D2*
X7873Y9952D1*
X7795Y9996D1*
X7738Y10065D1*
X7707Y10149D1*
Y10238D1*
X7737Y10322D1*
X7795Y10391D1*
X7872Y10436D1*
X7960Y10451D1*
X8475D1*
X8563Y10436D1*
X8641Y10391D1*
X8698Y10323D1*
X8729Y10239D1*
Y10149D1*
X8699Y10065D1*
X8641Y9997D1*
X8564Y9952D1*
X8476Y9936D1*
X7961D1*
G37*
G36*
X14945Y11822D2*
Y12062D1*
X14075D1*
Y11822D1*
X14945D1*
G37*
G36*
Y11322D2*
Y11562D1*
X14075D1*
Y11322D1*
X14945D1*
G37*
G36*
Y10822D2*
Y11062D1*
X14075D1*
Y10822D1*
X14945D1*
G37*
G36*
Y10322D2*
Y10562D1*
X14075D1*
Y10322D1*
X14945D1*
G37*
G36*
X17005D2*
Y10562D1*
X16135D1*
Y10322D1*
X17005D1*
G37*
G36*
Y10822D2*
Y11062D1*
X16135D1*
Y10822D1*
X17005D1*
G37*
G36*
Y11322D2*
Y11562D1*
X16135D1*
Y11322D1*
X17005D1*
G37*
G36*
Y11822D2*
Y12062D1*
X16135D1*
Y11822D1*
X17005D1*
G37*
D24*
X29176Y12208D3*
Y8208D3*
G36*
X27434Y11465D2*
X27522Y11450D1*
X27599Y11405D1*
X27657Y11337D1*
X27687Y11253D1*
Y11163D1*
X27657Y11079D1*
X27600Y11011D1*
X27522Y10966D1*
X27434Y10950D1*
X26919D1*
X26831Y10966D1*
X26754Y11010D1*
X26696Y11079D1*
X26665Y11163D1*
Y11252D1*
X26696Y11336D1*
X26753Y11405D1*
X26831Y11450D1*
X26919Y11465D1*
X27434D1*
G37*
G36*
Y10465D2*
X27522Y10450D1*
X27599Y10405D1*
X27657Y10337D1*
X27687Y10253D1*
Y10163D1*
X27657Y10079D1*
X27600Y10011D1*
X27522Y9966D1*
X27434Y9950D1*
X26919D1*
X26831Y9966D1*
X26754Y10010D1*
X26696Y10079D1*
X26665Y10163D1*
Y10252D1*
X26696Y10336D1*
X26753Y10405D1*
X26831Y10450D1*
X26919Y10465D1*
X27434D1*
G37*
G36*
X24898Y15541D2*
X25000Y15524D1*
X25089Y15472D1*
X25156Y15393D1*
X25191Y15296D1*
Y15193D1*
X25156Y15096D1*
X25090Y15017D1*
X25000Y14966D1*
X24899Y14948D1*
X24305D1*
X24204Y14966D1*
X24114Y15017D1*
X24048Y15096D1*
X24013Y15193D1*
Y15296D1*
X24048Y15393D1*
X24114Y15472D1*
X24203Y15523D1*
X24305Y15541D1*
X24898D1*
G37*
G36*
Y14541D2*
X25000Y14524D1*
X25089Y14472D1*
X25156Y14393D1*
X25191Y14296D1*
Y14193D1*
X25156Y14096D1*
X25090Y14017D1*
X25000Y13966D1*
X24899Y13948D1*
X24305D1*
X24204Y13966D1*
X24114Y14017D1*
X24048Y14096D1*
X24013Y14193D1*
Y14296D1*
X24048Y14393D1*
X24114Y14472D1*
X24203Y14523D1*
X24305Y14541D1*
X24898D1*
G37*
G36*
Y13541D2*
X25000Y13524D1*
X25089Y13472D1*
X25156Y13393D1*
X25191Y13296D1*
Y13193D1*
X25156Y13096D1*
X25090Y13017D1*
X25000Y12966D1*
X24899Y12948D1*
X24305D1*
X24204Y12966D1*
X24114Y13017D1*
X24048Y13096D1*
X24013Y13193D1*
Y13296D1*
X24048Y13393D1*
X24114Y13472D1*
X24203Y13523D1*
X24305Y13541D1*
X24898D1*
G37*
M02*
