G04 DipTrace 2.4.0.1*
%INTopMask.gbr*%
%MOIN*%
%ADD35C,0.1346*%
%ADD37C,0.2049*%
%FSLAX44Y44*%
G04*
G70*
G90*
G75*
G01*
%LNTopMask*%
%LPD*%
G36*
X14987Y14872D2*
X15697D1*
Y15661D1*
X14987D1*
Y14872D1*
G37*
G36*
X13884D2*
X14594D1*
Y15661D1*
X13884D1*
Y14872D1*
G37*
G36*
X22035Y8770D2*
Y9480D1*
X21246D1*
Y8770D1*
X22035D1*
G37*
G36*
Y7668D2*
Y8378D1*
X21246D1*
Y7668D1*
X22035D1*
G37*
G36*
X17546Y12874D2*
Y11770D1*
X18571D1*
Y12874D1*
X17546D1*
G37*
G36*
Y10354D2*
Y9250D1*
X18571D1*
Y10354D1*
X17546D1*
G37*
G36*
X14947Y6597D2*
X16051D1*
Y7622D1*
X14947D1*
Y6597D1*
G37*
G36*
X17467D2*
X18571D1*
Y7622D1*
X17467D1*
Y6597D1*
G37*
G36*
X22032Y15376D2*
X21703D1*
Y14969D1*
X22032D1*
Y15376D1*
G37*
G36*
X22937D2*
X22609D1*
Y14969D1*
X22937D1*
Y15376D1*
G37*
G36*
X22791Y12890D2*
X23119D1*
Y13297D1*
X22791D1*
Y12890D1*
G37*
G36*
X21885D2*
X22214D1*
Y13297D1*
X21885D1*
Y12890D1*
G37*
D37*
X28354Y15212D3*
X5857D3*
Y5169D3*
X28357Y15220D3*
Y5169D3*
G36*
X11695Y13500D2*
Y13026D1*
X12327D1*
Y13500D1*
X11695D1*
G37*
G36*
Y14248D2*
Y13774D1*
X12327D1*
Y14248D1*
X11695D1*
G37*
G36*
X10829Y13874D2*
Y13400D1*
X11461D1*
Y13874D1*
X10829D1*
G37*
G36*
X12324Y11025D2*
Y10551D1*
X12956D1*
Y11025D1*
X12324D1*
G37*
G36*
Y11773D2*
Y11299D1*
X12956D1*
Y11773D1*
X12324D1*
G37*
G36*
X11458Y11399D2*
Y10925D1*
X12090D1*
Y11399D1*
X11458D1*
G37*
G36*
X13563Y14071D2*
X12774D1*
Y12731D1*
X13563D1*
Y14071D1*
G37*
G36*
X15768D2*
X14979D1*
Y12731D1*
X15768D1*
Y14071D1*
G37*
G36*
X10307Y12524D2*
X9597D1*
Y11734D1*
X10307D1*
Y12524D1*
G37*
G36*
X11427D2*
X10717D1*
Y11734D1*
X11427D1*
Y12524D1*
G37*
G36*
X20278Y11177D2*
X19568D1*
Y10387D1*
X20278D1*
Y11177D1*
G37*
G36*
X21398D2*
X20688D1*
Y10387D1*
X21398D1*
Y11177D1*
G37*
G36*
X22534D2*
X21824D1*
Y10387D1*
X22534D1*
Y11177D1*
G37*
G36*
X23654D2*
X22944D1*
Y10387D1*
X23654D1*
Y11177D1*
G37*
G36*
X19823Y13099D2*
X19113D1*
Y12309D1*
X19823D1*
Y13099D1*
G37*
G36*
X20943D2*
X20232D1*
Y12309D1*
X20943D1*
Y13099D1*
G37*
G36*
X19913Y7028D2*
X19203D1*
Y6238D1*
X19913D1*
Y7028D1*
G37*
G36*
X21033D2*
X20323D1*
Y6238D1*
X21033D1*
Y7028D1*
G37*
G36*
X19589Y14808D2*
X20181D1*
Y15518D1*
X19589D1*
Y14808D1*
G37*
G36*
X18949Y13666D2*
X19817D1*
Y14376D1*
X18949D1*
Y13666D1*
G37*
G36*
X18585Y14808D2*
X19177D1*
Y15518D1*
X18585D1*
Y14808D1*
G37*
D35*
X6218Y8194D3*
Y12194D3*
G36*
X7957Y8896D2*
X7859Y8913D1*
X7769Y8965D1*
X7702Y9044D1*
X7667Y9142D1*
Y9245D1*
X7702Y9343D1*
X7769Y9422D1*
X7858Y9474D1*
X7957Y9491D1*
X8479D1*
X8577Y9474D1*
X8667Y9422D1*
X8734Y9343D1*
X8769Y9246D1*
Y9142D1*
X8734Y9045D1*
X8667Y8965D1*
X8578Y8914D1*
X8479Y8896D1*
X7957D1*
G37*
G36*
Y9896D2*
X7859Y9913D1*
X7769Y9965D1*
X7702Y10044D1*
X7667Y10142D1*
Y10245D1*
X7702Y10343D1*
X7769Y10422D1*
X7858Y10474D1*
X7957Y10491D1*
X8479D1*
X8577Y10474D1*
X8667Y10422D1*
X8734Y10343D1*
X8769Y10246D1*
Y10142D1*
X8734Y10045D1*
X8667Y9965D1*
X8578Y9914D1*
X8479Y9896D1*
X7957D1*
G37*
G36*
X14985Y11782D2*
Y12102D1*
X14035D1*
Y11782D1*
X14985D1*
G37*
G36*
Y11282D2*
Y11602D1*
X14035D1*
Y11282D1*
X14985D1*
G37*
G36*
Y10782D2*
Y11102D1*
X14035D1*
Y10782D1*
X14985D1*
G37*
G36*
Y10282D2*
Y10602D1*
X14035D1*
Y10282D1*
X14985D1*
G37*
G36*
X17045D2*
Y10602D1*
X16095D1*
Y10282D1*
X17045D1*
G37*
G36*
Y10782D2*
Y11102D1*
X16095D1*
Y10782D1*
X17045D1*
G37*
G36*
Y11282D2*
Y11602D1*
X16095D1*
Y11282D1*
X17045D1*
G37*
G36*
Y11782D2*
Y12102D1*
X16095D1*
Y11782D1*
X17045D1*
G37*
D35*
X29176Y12208D3*
Y8208D3*
G36*
X27437Y11506D2*
X27536Y11488D1*
X27625Y11437D1*
X27692Y11357D1*
X27728Y11260D1*
Y11156D1*
X27692Y11059D1*
X27626Y10980D1*
X27536Y10928D1*
X27438Y10910D1*
X26916D1*
X26817Y10928D1*
X26727Y10979D1*
X26661Y11059D1*
X26625Y11156D1*
Y11259D1*
X26660Y11357D1*
X26727Y11436D1*
X26817Y11488D1*
X26915Y11506D1*
X27437D1*
G37*
G36*
Y10506D2*
X27536Y10488D1*
X27625Y10437D1*
X27692Y10357D1*
X27728Y10260D1*
Y10156D1*
X27692Y10059D1*
X27626Y9980D1*
X27536Y9928D1*
X27438Y9910D1*
X26916D1*
X26817Y9928D1*
X26727Y9979D1*
X26661Y10059D1*
X26625Y10156D1*
Y10259D1*
X26660Y10357D1*
X26727Y10436D1*
X26817Y10488D1*
X26915Y10506D1*
X27437D1*
G37*
G36*
X24902Y15582D2*
X25014Y15562D1*
X25115Y15503D1*
X25191Y15414D1*
X25231Y15304D1*
Y15186D1*
X25191Y15076D1*
X25116Y14986D1*
X25014Y14927D1*
X24902Y14908D1*
X24302D1*
X24190Y14927D1*
X24088Y14986D1*
X24013Y15076D1*
X23973Y15186D1*
X23972Y15303D1*
X24012Y15413D1*
X24088Y15503D1*
X24189Y15562D1*
X24301Y15582D1*
X24902D1*
G37*
G36*
Y14582D2*
X25014Y14562D1*
X25115Y14503D1*
X25191Y14414D1*
X25231Y14304D1*
Y14186D1*
X25191Y14076D1*
X25116Y13986D1*
X25014Y13927D1*
X24902Y13908D1*
X24302D1*
X24190Y13927D1*
X24088Y13986D1*
X24013Y14076D1*
X23973Y14186D1*
X23972Y14303D1*
X24012Y14413D1*
X24088Y14503D1*
X24189Y14562D1*
X24301Y14582D1*
X24902D1*
G37*
G36*
Y13582D2*
X25014Y13562D1*
X25115Y13503D1*
X25191Y13414D1*
X25231Y13304D1*
Y13186D1*
X25191Y13076D1*
X25116Y12986D1*
X25014Y12927D1*
X24902Y12908D1*
X24302D1*
X24190Y12927D1*
X24088Y12986D1*
X24013Y13076D1*
X23973Y13186D1*
X23972Y13303D1*
X24012Y13413D1*
X24088Y13503D1*
X24189Y13562D1*
X24301Y13582D1*
X24902D1*
G37*
M02*
